<mxfile host="app.diagrams.net" modified="2023-11-29T15:26:56.490Z" agent="Mozilla/5.0 (Windows NT 10.0; Win64; x64) AppleWebKit/537.36 (KHTML, like Gecko) Chrome/119.0.0.0 Safari/537.36" etag="IAZd7Lkx1oVV9JOkRmsB" version="22.1.4" type="device">
  <diagram name="Page-1" id="vRPfZa6Owl-vutGVS2Nn">
    <mxGraphModel dx="2577" dy="2052" grid="1" gridSize="10" guides="1" tooltips="1" connect="1" arrows="1" fold="1" page="1" pageScale="1" pageWidth="827" pageHeight="1169" math="0" shadow="0">
      <root>
        <mxCell id="0" />
        <mxCell id="1" parent="0" />
        <mxCell id="GAf0kQTVgTrOHoO6ZH3b-1" value="acheteurs&amp;nbsp;" style="swimlane;fontStyle=1;align=center;verticalAlign=top;childLayout=stackLayout;horizontal=1;startSize=26;horizontalStack=0;resizeParent=1;resizeParentMax=0;resizeLast=0;collapsible=1;marginBottom=0;whiteSpace=wrap;html=1;" vertex="1" parent="1">
          <mxGeometry x="-220" y="-110" width="280" height="208" as="geometry" />
        </mxCell>
        <mxCell id="GAf0kQTVgTrOHoO6ZH3b-2" value="+nom TEXT&lt;br&gt;+age NUMBER&lt;br&gt;+profession VARCHAR&lt;br&gt;&amp;nbsp;+budget NUMBER&lt;br&gt;+id achteur NUMBER&amp;nbsp;&lt;br&gt;+superficieMaison VCARCHAR&amp;nbsp;&lt;br&gt;+animalVoulu&amp;nbsp;" style="text;strokeColor=none;fillColor=none;align=left;verticalAlign=top;spacingLeft=4;spacingRight=4;overflow=hidden;rotatable=0;points=[[0,0.5],[1,0.5]];portConstraint=eastwest;whiteSpace=wrap;html=1;" vertex="1" parent="GAf0kQTVgTrOHoO6ZH3b-1">
          <mxGeometry y="26" width="280" height="164" as="geometry" />
        </mxCell>
        <mxCell id="GAf0kQTVgTrOHoO6ZH3b-3" value="" style="line;strokeWidth=1;fillColor=none;align=left;verticalAlign=middle;spacingTop=-1;spacingLeft=3;spacingRight=3;rotatable=0;labelPosition=right;points=[];portConstraint=eastwest;strokeColor=inherit;" vertex="1" parent="GAf0kQTVgTrOHoO6ZH3b-1">
          <mxGeometry y="190" width="280" height="18" as="geometry" />
        </mxCell>
        <mxCell id="GAf0kQTVgTrOHoO6ZH3b-5" value="animalerie " style="swimlane;fontStyle=1;align=center;verticalAlign=top;childLayout=stackLayout;horizontal=1;startSize=26;horizontalStack=0;resizeParent=1;resizeParentMax=0;resizeLast=0;collapsible=1;marginBottom=0;whiteSpace=wrap;html=1;" vertex="1" parent="1">
          <mxGeometry x="590" y="394" width="160" height="178" as="geometry" />
        </mxCell>
        <mxCell id="GAf0kQTVgTrOHoO6ZH3b-6" value="+ localisation VARCHAR&amp;nbsp;&lt;br&gt;+ nom&amp;nbsp;&lt;br&gt;+capacité&lt;br&gt;+services&lt;br&gt;+typeAnimal" style="text;strokeColor=none;fillColor=none;align=left;verticalAlign=top;spacingLeft=4;spacingRight=4;overflow=hidden;rotatable=0;points=[[0,0.5],[1,0.5]];portConstraint=eastwest;whiteSpace=wrap;html=1;" vertex="1" parent="GAf0kQTVgTrOHoO6ZH3b-5">
          <mxGeometry y="26" width="160" height="144" as="geometry" />
        </mxCell>
        <mxCell id="GAf0kQTVgTrOHoO6ZH3b-7" value="" style="line;strokeWidth=1;fillColor=none;align=left;verticalAlign=middle;spacingTop=-1;spacingLeft=3;spacingRight=3;rotatable=0;labelPosition=right;points=[];portConstraint=eastwest;strokeColor=inherit;" vertex="1" parent="GAf0kQTVgTrOHoO6ZH3b-5">
          <mxGeometry y="170" width="160" height="8" as="geometry" />
        </mxCell>
        <mxCell id="GAf0kQTVgTrOHoO6ZH3b-13" value="" style="endArrow=open;endFill=1;endSize=12;html=1;rounded=0;exitX=1;exitY=0.5;exitDx=0;exitDy=0;" edge="1" parent="1" source="GAf0kQTVgTrOHoO6ZH3b-2">
          <mxGeometry width="160" relative="1" as="geometry">
            <mxPoint x="414.9200000000001" y="147.86400000000003" as="sourcePoint" />
            <mxPoint x="681" y="390" as="targetPoint" />
            <Array as="points">
              <mxPoint x="681" y="148" />
              <mxPoint x="681" y="280" />
            </Array>
          </mxGeometry>
        </mxCell>
        <mxCell id="GAf0kQTVgTrOHoO6ZH3b-14" value="" style="endArrow=open;endFill=1;endSize=12;html=1;rounded=0;" edge="1" parent="1" target="GAf0kQTVgTrOHoO6ZH3b-15">
          <mxGeometry width="160" relative="1" as="geometry">
            <mxPoint x="-110" y="100" as="sourcePoint" />
            <mxPoint x="250" y="400" as="targetPoint" />
          </mxGeometry>
        </mxCell>
        <mxCell id="GAf0kQTVgTrOHoO6ZH3b-15" value="ACHETER LANIMAL" style="rhombus;whiteSpace=wrap;html=1;" vertex="1" parent="1">
          <mxGeometry x="-150" y="400" width="80" height="80" as="geometry" />
        </mxCell>
        <mxCell id="GAf0kQTVgTrOHoO6ZH3b-17" value="" style="endArrow=block;dashed=1;endFill=0;endSize=12;html=1;rounded=0;entryX=1;entryY=0.5;entryDx=0;entryDy=0;" edge="1" parent="1" target="GAf0kQTVgTrOHoO6ZH3b-15">
          <mxGeometry width="160" relative="1" as="geometry">
            <mxPoint x="580" y="440" as="sourcePoint" />
            <mxPoint x="530" y="480" as="targetPoint" />
          </mxGeometry>
        </mxCell>
        <mxCell id="GAf0kQTVgTrOHoO6ZH3b-20" value="" style="endArrow=open;endFill=1;endSize=12;html=1;rounded=0;entryX=0.5;entryY=0;entryDx=0;entryDy=0;exitX=0.5;exitY=1;exitDx=0;exitDy=0;" edge="1" parent="1" source="GAf0kQTVgTrOHoO6ZH3b-15" target="GAf0kQTVgTrOHoO6ZH3b-21">
          <mxGeometry width="160" relative="1" as="geometry">
            <mxPoint x="249.41" y="480" as="sourcePoint" />
            <mxPoint x="270" y="660" as="targetPoint" />
          </mxGeometry>
        </mxCell>
        <mxCell id="GAf0kQTVgTrOHoO6ZH3b-21" value="animal de compagnie&amp;nbsp;" style="swimlane;fontStyle=1;align=center;verticalAlign=top;childLayout=stackLayout;horizontal=1;startSize=26;horizontalStack=0;resizeParent=1;resizeParentMax=0;resizeLast=0;collapsible=1;marginBottom=0;whiteSpace=wrap;html=1;" vertex="1" parent="1">
          <mxGeometry x="170" y="700" width="160" height="260" as="geometry" />
        </mxCell>
        <mxCell id="GAf0kQTVgTrOHoO6ZH3b-22" value="" style="line;strokeWidth=1;fillColor=none;align=left;verticalAlign=middle;spacingTop=-1;spacingLeft=3;spacingRight=3;rotatable=0;labelPosition=right;points=[];portConstraint=eastwest;strokeColor=inherit;" vertex="1" parent="GAf0kQTVgTrOHoO6ZH3b-21">
          <mxGeometry y="26" width="160" height="8" as="geometry" />
        </mxCell>
        <mxCell id="GAf0kQTVgTrOHoO6ZH3b-23" value="+type TEXT&lt;br&gt;+id&amp;nbsp; &amp;nbsp; VARCHAR&amp;nbsp;&lt;br&gt;+race TEXT&lt;br&gt;+dossierMédical TEXT&lt;br&gt;+matricule&amp;nbsp; &amp;nbsp;VARCHAR&amp;nbsp;&amp;nbsp;" style="text;strokeColor=none;fillColor=none;align=left;verticalAlign=top;spacingLeft=4;spacingRight=4;overflow=hidden;rotatable=0;points=[[0,0.5],[1,0.5]];portConstraint=eastwest;whiteSpace=wrap;html=1;" vertex="1" parent="GAf0kQTVgTrOHoO6ZH3b-21">
          <mxGeometry y="34" width="160" height="226" as="geometry" />
        </mxCell>
        <mxCell id="GAf0kQTVgTrOHoO6ZH3b-31" value="SE REND" style="ellipse;whiteSpace=wrap;html=1;" vertex="1" parent="1">
          <mxGeometry x="630" y="170" width="120" height="80" as="geometry" />
        </mxCell>
        <mxCell id="GAf0kQTVgTrOHoO6ZH3b-32" value="" style="endArrow=open;endFill=1;endSize=12;html=1;rounded=0;exitX=0.5;exitY=1;exitDx=0;exitDy=0;entryX=0.995;entryY=0.459;entryDx=0;entryDy=0;entryPerimeter=0;" edge="1" parent="1" source="GAf0kQTVgTrOHoO6ZH3b-34" target="GAf0kQTVgTrOHoO6ZH3b-23">
          <mxGeometry width="160" relative="1" as="geometry">
            <mxPoint x="424.9200000000001" y="610.004" as="sourcePoint" />
            <mxPoint x="691" y="852.14" as="targetPoint" />
            <Array as="points">
              <mxPoint x="680" y="840" />
            </Array>
          </mxGeometry>
        </mxCell>
        <mxCell id="GAf0kQTVgTrOHoO6ZH3b-35" value="" style="endArrow=open;endFill=1;endSize=12;html=1;rounded=0;entryX=0.5;entryY=0;entryDx=0;entryDy=0;" edge="1" parent="1" target="GAf0kQTVgTrOHoO6ZH3b-34">
          <mxGeometry width="160" relative="1" as="geometry">
            <mxPoint x="680" y="570" as="sourcePoint" />
            <mxPoint x="329" y="838" as="targetPoint" />
            <Array as="points" />
          </mxGeometry>
        </mxCell>
        <mxCell id="GAf0kQTVgTrOHoO6ZH3b-34" value="VENDS" style="ellipse;whiteSpace=wrap;html=1;" vertex="1" parent="1">
          <mxGeometry x="620" y="710" width="120" height="80" as="geometry" />
        </mxCell>
        <mxCell id="GAf0kQTVgTrOHoO6ZH3b-42" value="" style="endArrow=open;endFill=1;endSize=12;html=1;rounded=0;entryX=1;entryY=0;entryDx=0;entryDy=0;" edge="1" parent="1" target="GAf0kQTVgTrOHoO6ZH3b-21">
          <mxGeometry width="160" relative="1" as="geometry">
            <mxPoint x="588.5699999999999" y="570" as="sourcePoint" />
            <mxPoint x="589.1600000000001" y="790" as="targetPoint" />
          </mxGeometry>
        </mxCell>
        <mxCell id="GAf0kQTVgTrOHoO6ZH3b-43" value="&lt;font style=&quot;font-size: 24px;&quot;&gt;élève&amp;nbsp;&lt;/font&gt;" style="ellipse;whiteSpace=wrap;html=1;" vertex="1" parent="1">
          <mxGeometry x="410" y="600" width="120" height="80" as="geometry" />
        </mxCell>
        <mxCell id="GAf0kQTVgTrOHoO6ZH3b-47" value="1..*" style="text;html=1;strokeColor=none;fillColor=none;align=center;verticalAlign=middle;whiteSpace=wrap;rounded=0;" vertex="1" parent="1">
          <mxGeometry x="64" y="-40" width="60" height="30" as="geometry" />
        </mxCell>
        <mxCell id="GAf0kQTVgTrOHoO6ZH3b-49" value="1..*" style="text;html=1;strokeColor=none;fillColor=none;align=center;verticalAlign=middle;whiteSpace=wrap;rounded=0;" vertex="1" parent="1">
          <mxGeometry x="690" y="360" width="60" height="30" as="geometry" />
        </mxCell>
        <mxCell id="GAf0kQTVgTrOHoO6ZH3b-51" value="1..*" style="text;html=1;strokeColor=none;fillColor=none;align=center;verticalAlign=middle;whiteSpace=wrap;rounded=0;" vertex="1" parent="1">
          <mxGeometry x="320" y="700" width="60" height="30" as="geometry" />
        </mxCell>
        <mxCell id="GAf0kQTVgTrOHoO6ZH3b-52" value="1" style="text;html=1;align=center;verticalAlign=middle;resizable=0;points=[];autosize=1;strokeColor=none;fillColor=none;" vertex="1" parent="1">
          <mxGeometry x="585" y="568" width="30" height="30" as="geometry" />
        </mxCell>
        <mxCell id="GAf0kQTVgTrOHoO6ZH3b-53" value="*" style="text;html=1;align=center;verticalAlign=middle;resizable=0;points=[];autosize=1;strokeColor=none;fillColor=none;" vertex="1" parent="1">
          <mxGeometry x="335" y="800" width="30" height="30" as="geometry" />
        </mxCell>
        <mxCell id="GAf0kQTVgTrOHoO6ZH3b-54" value="*" style="text;html=1;align=center;verticalAlign=middle;resizable=0;points=[];autosize=1;strokeColor=none;fillColor=none;" vertex="1" parent="1">
          <mxGeometry x="205" y="660" width="30" height="30" as="geometry" />
        </mxCell>
        <mxCell id="GAf0kQTVgTrOHoO6ZH3b-55" value="adresse&amp;nbsp;" style="swimlane;fontStyle=1;align=center;verticalAlign=top;childLayout=stackLayout;horizontal=1;startSize=26;horizontalStack=0;resizeParent=1;resizeParentMax=0;resizeLast=0;collapsible=1;marginBottom=0;whiteSpace=wrap;html=1;" vertex="1" parent="1">
          <mxGeometry x="205" y="250" width="160" height="86" as="geometry" />
        </mxCell>
        <mxCell id="GAf0kQTVgTrOHoO6ZH3b-56" value="+adresse animalerie&amp;nbsp;" style="text;strokeColor=none;fillColor=none;align=left;verticalAlign=top;spacingLeft=4;spacingRight=4;overflow=hidden;rotatable=0;points=[[0,0.5],[1,0.5]];portConstraint=eastwest;whiteSpace=wrap;html=1;" vertex="1" parent="GAf0kQTVgTrOHoO6ZH3b-55">
          <mxGeometry y="26" width="160" height="26" as="geometry" />
        </mxCell>
        <mxCell id="GAf0kQTVgTrOHoO6ZH3b-57" value="" style="line;strokeWidth=1;fillColor=none;align=left;verticalAlign=middle;spacingTop=-1;spacingLeft=3;spacingRight=3;rotatable=0;labelPosition=right;points=[];portConstraint=eastwest;strokeColor=inherit;" vertex="1" parent="GAf0kQTVgTrOHoO6ZH3b-55">
          <mxGeometry y="52" width="160" height="8" as="geometry" />
        </mxCell>
        <mxCell id="GAf0kQTVgTrOHoO6ZH3b-58" value="+adresse acheteur&amp;nbsp;" style="text;strokeColor=none;fillColor=none;align=left;verticalAlign=top;spacingLeft=4;spacingRight=4;overflow=hidden;rotatable=0;points=[[0,0.5],[1,0.5]];portConstraint=eastwest;whiteSpace=wrap;html=1;" vertex="1" parent="GAf0kQTVgTrOHoO6ZH3b-55">
          <mxGeometry y="60" width="160" height="26" as="geometry" />
        </mxCell>
        <mxCell id="GAf0kQTVgTrOHoO6ZH3b-59" value="" style="endArrow=open;endFill=1;endSize=12;html=1;rounded=0;entryX=0;entryY=0;entryDx=0;entryDy=0;exitX=1;exitY=1;exitDx=0;exitDy=0;" edge="1" parent="1" source="GAf0kQTVgTrOHoO6ZH3b-1" target="GAf0kQTVgTrOHoO6ZH3b-55">
          <mxGeometry width="160" relative="1" as="geometry">
            <mxPoint x="-100" y="110" as="sourcePoint" />
            <mxPoint x="-100" y="410" as="targetPoint" />
          </mxGeometry>
        </mxCell>
        <mxCell id="GAf0kQTVgTrOHoO6ZH3b-60" value="vit" style="ellipse;whiteSpace=wrap;html=1;" vertex="1" parent="1">
          <mxGeometry x="70" y="130" width="120" height="80" as="geometry" />
        </mxCell>
        <mxCell id="GAf0kQTVgTrOHoO6ZH3b-61" value="" style="endArrow=open;endFill=1;endSize=12;html=1;rounded=0;entryX=0.996;entryY=1.026;entryDx=0;entryDy=0;entryPerimeter=0;" edge="1" parent="1" target="GAf0kQTVgTrOHoO6ZH3b-56">
          <mxGeometry width="160" relative="1" as="geometry">
            <mxPoint x="593.5699999999999" y="394" as="sourcePoint" />
            <mxPoint x="335" y="524" as="targetPoint" />
          </mxGeometry>
        </mxCell>
        <mxCell id="GAf0kQTVgTrOHoO6ZH3b-62" value="SE SITUE" style="ellipse;whiteSpace=wrap;html=1;" vertex="1" parent="1">
          <mxGeometry x="430" y="310" width="120" height="80" as="geometry" />
        </mxCell>
        <mxCell id="GAf0kQTVgTrOHoO6ZH3b-63" value="*" style="text;html=1;align=center;verticalAlign=middle;resizable=0;points=[];autosize=1;strokeColor=none;fillColor=none;" vertex="1" parent="1">
          <mxGeometry x="595" y="368" width="30" height="30" as="geometry" />
        </mxCell>
        <mxCell id="GAf0kQTVgTrOHoO6ZH3b-65" value="1" style="text;html=1;align=center;verticalAlign=middle;resizable=0;points=[];autosize=1;strokeColor=none;fillColor=none;" vertex="1" parent="1">
          <mxGeometry x="380" y="278" width="30" height="30" as="geometry" />
        </mxCell>
        <mxCell id="GAf0kQTVgTrOHoO6ZH3b-66" value="1" style="text;html=1;align=center;verticalAlign=middle;resizable=0;points=[];autosize=1;strokeColor=none;fillColor=none;" vertex="1" parent="1">
          <mxGeometry x="200" y="220" width="30" height="30" as="geometry" />
        </mxCell>
        <mxCell id="GAf0kQTVgTrOHoO6ZH3b-67" value="*" style="text;html=1;align=center;verticalAlign=middle;resizable=0;points=[];autosize=1;strokeColor=none;fillColor=none;" vertex="1" parent="1">
          <mxGeometry x="70" y="68" width="30" height="30" as="geometry" />
        </mxCell>
      </root>
    </mxGraphModel>
  </diagram>
</mxfile>
